<?xml version="1.0" encoding="utf-8"?>
<!-- Generator: Adobe Illustrator 25.4.1, SVG Export Plug-In . SVG Version: 6.00 Build 0)  -->
<svg version="1.1" id="Layer_1" xmlns="http://www.w3.org/2000/svg" xmlns:xlink="http://www.w3.org/1999/xlink" x="0px" y="0px"
	 viewBox="0 0 391 275" style="enable-background:new 0 0 391 275;" xml:space="preserve">
<style type="text/css">
	.st0{fill:#FFFFFF;}
</style>
<path class="st0" d="M372.8,14.5c-25.3-0.1-50.6,0.5-75.7,3.9c-34.1,4.7-66.9,13.9-98.4,28c-38.8,17.4-76.3,37.2-111.6,60.9
	c-20.8,14-41,28.9-59.1,46.3c-7.3,7-13.3,15-15.9,24.9c-4.2,16.2,1.6,29,16.8,37.4c10.1,5.6,21.1,8.3,32.4,9.7
	c4.6,0.6,9.2,1.1,14.4,1.7c-5.6,5.6-10.8,10.7-16,15.8c-1.4,1.4-2.8,2.8-3.3,4.8c-1.1,4.7,2,9,6.8,9.5c1,0.1,2,0.1,3,0.1
	c33.8,0,67.6,0,101.4,0.1c4.1,0,7.1-1.3,9.7-4.5c5-6,10.9-11.1,17.3-15.6c1.6-1.1,2.3-1,3.3,0.7c8.2,13.6,20.3,20.4,36.1,19.1
	c16.4-1.4,28.8-12.2,33.2-27.9c0.5-1.9,1.3-2.3,3-2.3c3.9,0.1,7.9,0.2,11.8,0c2-0.1,2.7,0.6,3.2,2.4c4.1,13.6,13,22.6,26.6,26.5
	c19.6,5.6,40.6-6.2,46.1-25.8c0.7-2.3,1.6-3.3,3.9-3.1v0.1h13.1v-53.3c0-2,0-4,0-6.1c0-7,0-14,0.1-21c0-2.6-0.6-3.4-3.3-3.3
	c-8.1,0.2-16.2,0-24.3,0.2c-2.5,0.1-2.9-0.8-2.9-3c0.1-13.2,0.1-26.5,0-39.7c0-2.2,0.5-2.9,2.8-2.9c8.3,0.1,16.6-0.1,24.9,0
	c2.2,0,2.8-0.7,2.8-2.8c-0.1-26,0-52,0-78C375,15.8,375.2,14.5,372.8,14.5z M162.4,220.2c-0.4,4.1-3.9,6.8-8.6,6.8H76.9
	c-0.2-0.3-0.4-0.5-0.5-0.8c4.1-4.1,8.3-8.1,12.4-12.2c1.6-1.6,3.2-2.3,5.4-2.3c17.4,0.1,34.7,0.1,52.1,0.1c2.9,0,5.7-0.1,8.6,0.1
	C159.6,212.1,162.9,215.8,162.4,220.2z M202.9,153.6c-13.2,1.5-26.4,3.2-39.6,5c-2.2,0.3-3.9-0.2-5.2-1.9c-3.2-3.8-6.3-7.6-9.5-11.3
	c-0.7-0.9-1.2-1.8-1.3-2.7c0-2.8,1.9-3.7,3.9-4.5c15.3-6.2,30.9-11.3,46.6-16.2c2.6-0.8,3.4-0.2,3.8,2.4c1.3,8.5,2.7,17,4.3,25.4
	C206.3,152.6,205.6,153.3,202.9,153.6z M250.7,230.1c-8.3,15.2-29.4,16.1-39,1.7c-1.3-2-1.3-2.8,1.3-3.5c7.2-1.9,14.5-1,20.8-1.3
	H249C252.4,227,252.4,227.1,250.7,230.1z M261,108.9v36.7c0,1.4-0.3,2-1.9,2.2c-11.8,1.1-23.6,2.2-35.3,3.4
	c-1.9,0.2-2.6-0.4-2.9-2.2c-1.6-9.7-3.3-19.4-5-29.1c-0.4-2.1,0.2-2.9,2.3-3.5c13.5-3.5,27-6.5,40.6-9.3
	C260.5,106.8,261.1,107.1,261,108.9z M253.7,62.5c-12.8,11-27.9,17.4-43.7,22.3c-28.3,8.9-57.4,14.3-87,18.3c0.8-1.3,2-1.8,3-2.4
	c19.1-11.4,38.7-21.7,58.7-31.3c26.5-12.8,53.7-24,82.6-30.3c2.9-0.6,5.7-1.5,9.1-1.6C269.3,46.6,262.2,55.2,253.7,62.5z M279,146.3
	c-1.4,0.1-2.7,0.4-2.7-1.9c0.1-12.8,0-25.7,0-38.5c0-1.3,0.5-1.8,1.8-2.1c16.2-2.5,32.5-4.1,48.8-5.2c2.1-0.1,2.4,0.7,2.4,2.5
	c-0.1,6.7,0,13.4,0,20.1s-0.1,13.4,0,20.1c0,1.9-0.5,2.6-2.5,2.6c-3.3-0.1-6.5,0-9.8,0.2C304.4,144.9,291.7,145.6,279,146.3z
	 M342.3,229.1C338,237.3,331.4,242,322,242c-9.5,0.1-16.3-4.4-20.7-12.8c-1-2-0.3-2.3,1.6-2.3c6.3,0.1,12.6,0,18.9,0h18.9
	C342.4,227,343.3,227.2,342.3,229.1z"/>
</svg>
