<?xml version="1.0" encoding="utf-8"?>
<!-- Generator: Adobe Illustrator 25.4.1, SVG Export Plug-In . SVG Version: 6.00 Build 0)  -->
<svg version="1.1" id="Layer_1" xmlns="http://www.w3.org/2000/svg" xmlns:xlink="http://www.w3.org/1999/xlink" x="0px" y="0px"
	 viewBox="0 0 1000 1300" style="enable-background:new 0 0 1000 1300;" xml:space="preserve">
<style type="text/css">
	.st0{clip-path:url(#XMLID_00000088829699455848218620000000125174796033727919_);}
	.st1{fill:#CECECE;}
	.st2{fill:#D6D6D6;}
	.st3{fill:#EAEAEA;}
</style>
<g>
	<defs>
		<rect id="XMLID_17_" width="1000" height="1300"/>
	</defs>
	<clipPath id="XMLID_00000152970408657698151130000009814732415114848688_">
		<use xlink:href="#XMLID_17_"  style="overflow:visible;"/>
	</clipPath>
	<g style="clip-path:url(#XMLID_00000152970408657698151130000009814732415114848688_);">
		<g>
			<g>
				<polygon class="st1" points="135.5,1259.2 208.3,1259.2 208.3,1109 210.4,1109 210.4,1104.7 205.9,1104.7 205.9,1099.2 
					170,1099.2 170,1090.8 156.3,1090.8 154.3,1085.4 150.9,1085.4 150.9,1075.7 150.2,1075.7 149.4,1075.7 149.4,1085.4 
					143.1,1085.4 143.1,1090.8 143.1,1097.1 143.1,1099.2 137.9,1099.2 137.9,1104.7 133.4,1104.7 133.4,1109 135.5,1109 				"/>
				<path class="st1" d="M151.5,1074.3c0-0.7-0.6-1.4-1.4-1.4c-0.7,0-1.4,0.6-1.4,1.4s0.6,1.4,1.4,1.4
					C150.9,1075.7,151.5,1075,151.5,1074.3z"/>
				<polygon class="st1" points="811.3,1268 811.3,1066 721.6,1047.4 731.5,1268 468.4,1268 468.4,1143.2 463.5,1143.2 
					463.5,1068.6 451,1068.6 451,1048.6 446.6,1048.6 446.6,1019.2 422,1019.2 422,997.7 419.8,997.7 419.8,1019.2 415,1019.2 
					415,992.2 412.8,992.2 412.8,1019.2 397.2,1019.2 397.2,1068.6 389.2,1068.6 389.2,1143.2 382.3,1143.2 382.3,1268 312.3,1268 
					312.3,1101.9 313.5,1101.9 313.5,1100 304.9,1100 304.9,1088.4 306,1088.4 306,1086.6 298.1,1086.6 298.1,1080 298.9,1080 
					298.9,1078.5 295.5,1078.5 295.5,1072.3 292.2,1072.3 291.7,1072.3 291.7,1049.9 291.3,1049.9 290.9,1049.9 290.4,1049.9 
					290.4,1072.3 288.9,1072.3 288.9,1059.8 288.6,1059.8 288.1,1059.8 287.7,1059.8 287.7,1072.3 283.9,1072.3 283.9,1078.5 
					280,1078.5 280,1080 281.2,1080 281.2,1086.6 273.3,1086.6 273.3,1088.4 274.4,1088.4 274.4,1100 265.8,1100 265.8,1101.9 
					267,1101.9 267,1268 33.7,1268 33.7,1290.6 986.1,1290.6 986.1,1268 				"/>
			</g>
		</g>
		<path class="st2" d="M969,1288.4V1268h-28.7l-10.8-80.3h-1.6v-9.6h-5.7v9.6h-1.4v-3.6h-4v3.6h-8.3v-8.4h-2.3v-5.8h-16.2v5.8h-2.3
			v8.4h-2.3v48.2h-14.4v-122.3h-4.7v-26.8h-1.5v26.8h-3.6v-37.2h-1.5v37.2h-3.1v-20.1h-1.5v20.1h-28v86.8h-31.2v56.2h-29.1
			l-23.1-42.6c3.9-2.2,7.6-4.9,10.9-8.1l4.7,5.1c-1,0.9-1.7,2.2-1.7,3.7c0,2.7,2.2,4.8,4.8,4.8c2.7,0,4.8-2.2,4.8-4.8
			c0-2.7-2.2-4.8-4.8-4.8c-1,0-2,0.3-2.8,0.9l-4.8-5.1c0.4-0.4,0.8-0.8,1.2-1.2c5-5,9-10.7,11.9-16.9l5.3,2.4
			c-0.1,0.4-0.1,0.8-0.1,1.2c0,2.7,2.2,4.8,4.8,4.8c2.7,0,4.8-2.2,4.8-4.8c0-2.7-2.2-4.8-4.8-4.8c-2.1,0-3.8,1.3-4.5,3.1l-5.2-2.4
			c3.2-7,5-14.7,5.3-22.6l5.7,0.2c0.1,2.6,2.2,4.7,4.8,4.7c2.7,0,4.8-2.2,4.8-4.8c0-2.7-2.2-4.8-4.8-4.8c-2.5,0-4.6,2-4.8,4.4
			l-5.7-0.2c0-0.6,0-1.1,0-1.7c0-7.1-1.2-13.9-3.6-20.4l4.7-1.7c0.7,1.7,2.5,2.9,4.5,2.9c2.7,0,4.8-2.2,4.8-4.8
			c0-2.7-2.2-4.8-4.8-4.8c-2.7,0-4.8,2.2-4.8,4.8c0,0.5,0.1,1,0.2,1.4l-4.7,1.7c-2.7-7.2-6.8-13.9-12.2-19.7l3.7-3.5
			c0.9,0.8,2,1.3,3.3,1.3c2.7,0,4.8-2.2,4.8-4.8c0-2.7-2.2-4.8-4.8-4.8s-4.8,2.2-4.8,4.8c0,1.2,0.4,2.3,1.1,3.1l-3.7,3.5
			c-0.4-0.4-0.8-0.8-1.2-1.2c-5.6-5.6-12.2-10-19.3-12.9l2-5c0.5,0.1,1,0.2,1.5,0.2c2.7,0,4.8-2.2,4.8-4.8c0-2.7-2.2-4.8-4.8-4.8
			c-2.7,0-4.8,2.2-4.8,4.8c0,2,1.2,3.7,2.9,4.4l-2,5c-6.4-2.6-13.2-4.1-20.2-4.3l0.2-6.8c0.1,0,0.1,0,0.2,0c2.7,0,4.8-2.2,4.8-4.8
			c0-2.7-2.2-4.8-4.8-4.8s-4.8,2.2-4.8,4.8c0,2.4,1.8,4.5,4.2,4.8l-0.2,6.8c-0.6,0-1.1,0-1.7,0c-6.8,0-13.4,1.1-19.6,3.3l-2-5.5
			c1.8-0.7,3-2.5,3-4.5c0-2.7-2.2-4.8-4.8-4.8c-2.7,0-4.8,2.2-4.8,4.8c0,2.7,2.2,4.8,4.8,4.8c0.5,0,0.9-0.1,1.3-0.2l2,5.5
			c-7.5,2.7-14.5,6.9-20.5,12.5l-3.5-3.8c0.8-0.9,1.3-2,1.3-3.3c0-2.7-2.2-4.8-4.8-4.8c-2.7,0-4.8,2.2-4.8,4.8
			c0,2.7,2.2,4.8,4.8,4.8c1.2,0,2.3-0.5,3.2-1.2l3.5,3.8c-0.4,0.4-0.8,0.8-1.2,1.2c-5,5-9,10.7-11.9,16.9l-4.5-2.1
			c0.2-0.5,0.3-1,0.3-1.5c0-2.7-2.2-4.8-4.8-4.8c-2.7,0-4.8,2.2-4.8,4.8c0,2.7,2.2,4.8,4.8,4.8c1.9,0,3.6-1.1,4.4-2.8l4.5,2.1
			c-3.2,7-5,14.7-5.3,22.6l-5.8-0.2c-0.1-2.6-2.2-4.7-4.8-4.7c-2.7,0-4.8,2.2-4.8,4.8c0,2.7,2.2,4.8,4.8,4.8c2.5,0,4.6-2,4.8-4.4
			l5.8,0.2c0,0.6,0,1.1,0,1.7c0,7.1,1.2,13.9,3.6,20.4l-4.7,1.7c-0.7-1.7-2.5-2.9-4.5-2.9c-2.7,0-4.8,2.2-4.8,4.8
			c0,2.7,2.2,4.8,4.8,4.8c2.7,0,4.8-2.2,4.8-4.8c0-0.5-0.1-1-0.2-1.4l4.7-1.7c2.7,7.2,6.8,13.9,12.2,19.7l-3.7,3.5
			c-0.9-0.8-2-1.3-3.3-1.3c-2.7,0-4.8,2.2-4.8,4.8s2.2,4.8,4.8,4.8c2.7,0,4.8-2.2,4.8-4.8c0-1.2-0.4-2.3-1.1-3.1l3.7-3.5
			c0.4,0.4,0.8,0.8,1.2,1.2c3.8,3.8,8,7,12.5,9.6l-23.1,42.6h-18.7v-28.9h-7.6V1173h3v-1.2H572v1.2h3v27.6h-6.4l-6.1,31.5v-103.3
			h-2.7v-37.4h-13.5v-14.2H539v-12h-2.5v-20.5h-0.7v20.5h-2.5v12H526v14.2h-13.4v37.4h-2.8v67.9h-20.8v59.9h-69.1v-115.9h5.6v-1.8
			h-5.6v-3.3h-7v-5.4h-57.6v5.4h-7v3.3h-5.6v1.8h5.6v72.1h-9.4v-13.5h-58.1v16.5h-12.7v30.8h-20.5v-100.6h-6.8v-6.8h-5.4v-18.1H234
			v18.1h-2.6v-22.7h-1.1v22.7h-3.2v6.8h-1.7v100.6H183v-59h2v-4h-13.1v-10.8h-6.3v10.8h-5.7v-10.8h-5.7v10.8h-11.1v-10.8h-33.9v10.8
			h-7.9v4h4.5v22.2H93.2v50.1H76v-13.4H56.9v29.2H33.7v12.5H-0.5v35.7h999.9v-35.7H969z M742.7,1212.7l-8-14.7
			c2.6-1.5,5-3.3,7.1-5.3l11.5,12.2C750.1,1207.9,746.5,1210.5,742.7,1212.7z M712.8,1165.4c0.2,0.1,0.4,0.1,0.6,0.1l-1.2,37.3
			c-4.8-0.2-9.4-1.2-13.6-2.9L712.8,1165.4z M698.1,1199.7c-1.4-0.6-2.7-1.2-4-1.9l17.8-32.8c0.1,0.1,0.2,0.1,0.4,0.2L698.1,1199.7z
			 M713.9,1165.5c0.2,0,0.4,0,0.7-0.1l12.4,35.2c-4.2,1.4-8.6,2.2-13.2,2.2c-0.4,0-0.7,0-1,0L713.9,1165.5z M715.1,1165.2
			c0.2-0.1,0.3-0.2,0.5-0.3l17.8,32.8c-1.9,1-3.9,1.9-5.9,2.7L715.1,1165.2z M718.1,1167.3l23.2,24.8c-2.1,2-4.5,3.7-7,5.2
			L718.1,1167.3z M717.1,1165.4l-0.7-1.2c0.1-0.1,0.1-0.2,0.2-0.3l33.9,15.6c-2.2,4.6-5.2,8.7-8.8,12.2L717.1,1165.4z M716.8,1163.4
			c0.1-0.2,0.1-0.5,0.2-0.7l37.3,1.2c-0.2,5.4-1.5,10.5-3.6,15.2L716.8,1163.4z M717,1162.1c0-0.2-0.1-0.5-0.1-0.7l35-12.9
			c1.6,4.3,2.4,8.9,2.4,13.8c0,0.4,0,0.7,0,1L717,1162.1z M716.7,1160.9c-0.1-0.2-0.2-0.5-0.4-0.6l27.2-25.5
			c3.5,3.8,6.3,8.3,8.2,13.3L716.7,1160.9z M716,1159.8c-0.2-0.2-0.4-0.4-0.7-0.5l14.2-34.5c5.2,2.2,9.9,5.5,13.8,9.5L716,1159.8z
			 M714.8,1159.1c-0.2-0.1-0.4-0.1-0.6-0.1l1.2-37.3c4.8,0.2,9.4,1.2,13.6,2.9L714.8,1159.1z M713.6,1159c-0.2,0-0.4,0-0.7,0.1
			l-12.4-35.2c4.2-1.4,8.6-2.2,13.2-2.2c0.4,0,0.7,0,1,0L713.6,1159z M712.4,1159.3c-0.2,0.1-0.5,0.3-0.7,0.4l-25.5-27.2
			c4-3.7,8.6-6.5,13.8-8.4L712.4,1159.3z M711.4,1160.1c-0.2,0.2-0.3,0.4-0.4,0.6l-33.9-15.6c2.2-4.6,5.2-8.7,8.8-12.2L711.4,1160.1
			z M710.7,1161.1c-0.1,0.2-0.1,0.5-0.2,0.7l-37.3-1.2c0.2-5.4,1.5-10.5,3.6-15.2L710.7,1161.1z M710.5,1162.4
			c0,0.2,0.1,0.5,0.1,0.7l-35,12.9c-1.6-4.3-2.4-8.9-2.4-13.8c0-0.4,0-0.7,0-1L710.5,1162.4z M710.8,1163.6c0.1,0.2,0.2,0.4,0.3,0.5
			l-0.2,0.4l-26.9,25.2c-3.5-3.8-6.3-8.3-8.2-13.3L710.8,1163.6z M710.1,1166.1l-16.9,31.1c-3.3-1.9-6.2-4.3-8.8-7L710.1,1166.1z
			 M693.8,1198.5c1.3,0.7,2.7,1.4,4.1,2l-6.4,15.5c-1.9-0.8-3.8-1.7-5.7-2.7L693.8,1198.5z M698.3,1200.6c4.3,1.7,9,2.8,13.9,3
			l-0.5,16.7c-6.8-0.2-13.5-1.7-19.7-4.2L698.3,1200.6z M712.7,1203.6c0.4,0,0.7,0,1.1,0c4.7,0,9.3-0.8,13.5-2.3l5.6,15.8
			c-6.1,2.1-12.5,3.2-19.1,3.2c-0.5,0-1.1,0-1.6,0L712.7,1203.6z M727.8,1201.2c2.1-0.8,4.1-1.7,6-2.7l8,14.7
			c-2.7,1.5-5.5,2.8-8.4,3.8L727.8,1201.2z M754.9,1203.4c-0.4,0.4-0.8,0.8-1.2,1.1l-11.5-12.2c3.7-3.5,6.8-7.7,9-12.4l15.2,7
			C763.6,1192.9,759.7,1198.5,754.9,1203.4z M766.7,1186.4l-15.2-7c2.2-4.8,3.5-10,3.7-15.5l16.7,0.5
			C771.6,1172.1,769.8,1179.5,766.7,1186.4z M771.9,1162.3c0,0.5,0,1.1,0,1.6l-16.7-0.5c0-0.4,0-0.7,0-1.1c0-4.9-0.9-9.7-2.5-14
			l15.7-5.8C770.7,1148.7,771.9,1155.4,771.9,1162.3z M756.4,1122.7c5.2,5.6,9.3,12.2,11.9,19.2l-15.7,5.8
			c-1.9-5.1-4.8-9.6-8.4-13.5L756.4,1122.7z M754.9,1121.1c0.4,0.4,0.8,0.8,1.1,1.2l-12.2,11.5c-3.9-4.1-8.7-7.5-14-9.7l6.4-15.5
			C743.1,1111.4,749.4,1115.7,754.9,1121.1z M715.9,1104.2c6.8,0.2,13.5,1.7,19.7,4.2l-6.4,15.5c-4.3-1.7-9-2.8-13.9-3L715.9,1104.2
			z M713.8,1104.1c0.5,0,1.1,0,1.6,0l-0.5,16.7c-0.4,0-0.7,0-1.1,0c-4.7,0-9.3,0.8-13.5,2.3l-5.6-15.8
			C700.8,1105.2,707.2,1104.1,713.8,1104.1z M694.2,1107.5l5.6,15.8c-5.3,1.9-10,4.8-14.1,8.6l-11.5-12.2
			C680.1,1114.2,686.9,1110.1,694.2,1107.5z M672.7,1121.1c0.4-0.4,0.8-0.8,1.2-1.1l11.5,12.2c-3.7,3.5-6.8,7.7-9,12.4l-15.2-7
			C663.9,1131.6,667.8,1126,672.7,1121.1z M660.9,1138.1l15.2,7c-2.2,4.8-3.5,10-3.7,15.5l-16.7-0.5
			C656,1152.4,657.7,1145,660.9,1138.1z M655.7,1162.3c0-0.5,0-1.1,0-1.6l16.7,0.5c0,0.4,0,0.7,0,1.1c0,4.9,0.9,9.7,2.5,14
			l-15.7,5.8C656.8,1175.8,655.7,1169.1,655.7,1162.3z M671.2,1201.8c-5.2-5.6-9.3-12.2-11.9-19.2l15.7-5.8
			c1.9,5.1,4.8,9.6,8.4,13.5L671.2,1201.8z M672.7,1203.4c-0.4-0.4-0.8-0.8-1.1-1.2l12.2-11.5c2.7,2.8,5.7,5.2,9,7.2l-8,14.7
			C680.4,1210.2,676.4,1207,672.7,1203.4z M685,1214.6c1.9,1,3.8,2,5.8,2.8l-2,5c-0.5-0.1-1-0.2-1.5-0.2c-2.7,0-4.8,2.2-4.8,4.8
			c0,2.7,2.2,4.8,4.8,4.8s4.8-2.2,4.8-4.8c0-2-1.2-3.7-2.9-4.4l2-5c6.4,2.6,13.2,4.1,20.2,4.3l-0.2,5.1c-2.6,0.1-4.7,2.2-4.7,4.8
			c0,2.7,2.2,4.8,4.8,4.8c2.7,0,4.8-2.2,4.8-4.8c0-2.5-1.9-4.6-4.4-4.8l0.2-5.1c0.6,0,1.1,0,1.7,0c6.8,0,13.4-1.1,19.6-3.3l1.7,4.9
			c-1.6,0.8-2.8,2.4-2.8,4.4c0,2.7,2.2,4.8,4.8,4.8s4.8-2.2,4.8-4.8c0-2.7-2.2-4.8-4.8-4.8c-0.5,0-1.1,0.1-1.6,0.3l-1.7-4.9
			c3-1.1,5.9-2.4,8.7-3.9l22.8,42.1H662.2L685,1214.6z"/>
		<g>
			<g>
				<path class="st3" d="M855.2,1139.2c0-0.7-0.5-1.4-1.1-1.4c-0.6,0-1.1,0.6-1.1,1.4s0.5,1.4,1.1,1.4
					C854.7,1140.6,855.2,1139.9,855.2,1139.2z"/>
				<polygon class="st3" points="979.2,1303.9 972.1,1256.7 957.7,1256.7 957.7,1217.5 959.5,1217.5 959.5,1214 952.5,1214 
					952.5,1198.7 951.6,1198.7 951.6,1214 946.8,1214 946.8,1201.5 945.9,1201.5 945.9,1214 916.7,1214 916.7,1217.5 918.7,1217.5 
					918.7,1297 885.4,1297 885.4,1261.4 866.4,1261.4 866.4,1173.9 868.1,1173.9 868.1,1169.6 864.3,1169.6 864.3,1164.1 
					860,1164.1 860,1162 860,1155.7 860,1150.3 854.7,1150.3 854.7,1140.6 854.1,1140.6 853.4,1140.6 853.4,1150.3 850.6,1150.3 
					848.9,1155.7 837.4,1155.7 837.4,1164.1 807.3,1164.1 807.3,1169.6 803.5,1169.6 803.5,1173.9 805.3,1173.9 805.3,1230.8 
					780.1,1230.8 780.1,1286.8 752.2,1274.4 752.2,1220.1 756.7,1220.1 756.7,1216.1 748.8,1216.1 748.8,1205.3 714.8,1205.3 
					714.8,1216.1 703.7,1216.1 703.7,1205.3 698,1205.3 698,1216.1 692.3,1216.1 692.3,1205.3 686.1,1205.3 686.1,1216.1 
					673,1216.1 673,1220.1 675,1220.1 675,1295.3 662.2,1295.3 662.2,1294.6 659.9,1294.6 659.9,1273.1 662.2,1273.1 662.2,1271.4 
					659.9,1271.4 659.9,1249.9 662.2,1249.9 662.2,1248.2 659.9,1248.2 659.9,1226.8 662.2,1226.8 662.2,1225.1 659.9,1225.1 
					659.9,1203.6 662.2,1203.6 662.2,1201.9 659.9,1201.9 659.9,1180.4 662.2,1180.4 662.2,1178.7 659.9,1178.7 659.9,1156.5 
					663.9,1156.5 663.9,1154.8 665.9,1154.8 665.9,1150.1 628.4,1150.1 628.4,1144.9 629.6,1144.9 629.6,1143.4 609.2,1143.4 
					609.2,1144.9 610.4,1144.9 610.4,1150.1 601.1,1150.1 601.1,1154.8 603.2,1154.8 603.2,1156.5 607.1,1156.5 607.1,1178.7 
					604.8,1178.7 604.8,1180.4 607.1,1180.4 607.1,1201.9 604.8,1201.9 604.8,1203.6 607.1,1203.6 607.1,1225.1 604.8,1225.1 
					604.8,1226.8 607.1,1226.8 607.1,1248.2 604.8,1248.2 604.8,1249.9 607.1,1249.9 607.1,1271.4 604.8,1271.4 604.8,1273.1 
					607.1,1273.1 607.1,1294.6 604.8,1294.6 604.8,1296.3 607.1,1296.3 607.1,1313.8 594.3,1313.8 594.3,1246.1 542.8,1246.1 
					542.8,1295.3 534.5,1295.3 534.5,1141.9 528.3,1141.9 528.3,1145.8 516.9,1148.6 516.9,1146.1 510.7,1146.1 510.7,1150.1 
					499.3,1152.9 499.3,1150 493.1,1150 493.1,1154.4 481.7,1157.2 481.7,1154.8 475.5,1154.8 475.5,1158.7 464.1,1161.5 
					464.1,1159.4 457.9,1159.4 457.9,1310.2 449.2,1310.2 449.2,1229.8 417,1229.8 417,1279.2 384,1279.2 384,1237.1 379.9,1237.1 
					379.9,1223.2 382.3,1223.2 382.3,1221.9 371.6,1221.9 371.6,1217.5 370.5,1217.5 370.5,1221.9 367,1221.9 367,1199.5 
					366.2,1199.5 366.2,1221.9 361.7,1221.9 361.7,1223.2 364.4,1223.2 364.4,1237.1 342.6,1237.1 342.6,1269.2 321.3,1269.2 
					310.2,1310.2 288,1310.2 288,1176.5 258.6,1176.5 258.6,1171.7 260.2,1171.7 260.2,1170 237.9,1170 237.9,1171.7 239.7,1171.7 
					239.7,1176.5 239.7,1184.2 239.7,1275.7 225.8,1275.7 225.8,1241.2 230.7,1241.2 230.7,1238 195.8,1238 195.8,1217.1 
					189.1,1217.1 189.1,1212.8 174.3,1212.8 174.3,1217.1 162.2,1217.1 162.2,1291.7 122.4,1291.7 122.4,1236.4 89,1236.4 
					89,1280.1 60,1280.1 60,1308.1 39.1,1308.1 39.1,1272.9 11.5,1272.9 11.5,1302.9 -13.4,1302.9 -13.4,1324.1 11.5,1324.1 
					20,1324.1 33.7,1324.1 39.1,1324.1 60,1324.1 89,1324.1 98.8,1324.1 104,1324.1 122.4,1324.1 162.2,1324.1 174.3,1324.1 
					189.1,1324.1 195.8,1324.1 221.9,1324.1 225.8,1324.1 239.7,1324.1 263,1324.1 274.4,1324.1 288,1324.1 342.6,1324.1 
					355.2,1324.1 376.4,1324.1 384,1324.1 417.5,1324.1 426.6,1324.1 457.9,1324.1 461,1324.1 464.1,1324.1 475.5,1324.1 
					481.7,1324.1 493.1,1324.1 498.3,1324.1 499.3,1324.1 510.7,1324.1 516.9,1324.1 526.7,1324.1 528.3,1324.1 531.4,1324.1 
					534.5,1324.1 542.8,1324.1 585.4,1324.1 591.5,1324.1 594.3,1324.1 607.1,1324.1 629.6,1324.1 650.2,1324.1 659.9,1324.1 
					675,1324.1 712.3,1324.1 751.8,1324.1 752.2,1324.1 780.1,1324.1 795.7,1324.1 805.3,1324.1 811.3,1324.1 858,1324.1 
					866.4,1324.1 876.4,1324.1 885.4,1324.1 918.7,1324.1 943.5,1324.1 948.6,1324.1 957.7,1324.1 1013.2,1324.1 1013.2,1303.9 				
					"/>
			</g>
		</g>
	</g>
</g>
</svg>
