<?xml version="1.0" encoding="utf-8"?>
<!-- Generator: Adobe Illustrator 25.4.1, SVG Export Plug-In . SVG Version: 6.00 Build 0)  -->
<svg version="1.1" id="Layer_1" xmlns="http://www.w3.org/2000/svg" xmlns:xlink="http://www.w3.org/1999/xlink" x="0px" y="0px"
	 viewBox="0 0 1139 188" style="enable-background:new 0 0 1139 188;" xml:space="preserve">
<style type="text/css">
	.st0{fill:#FFFFFF;}
</style>
<g>
	<path class="st0" d="M13.5,172.7V13.8h82.6c13,0,23.7,2.4,31.9,7.1s14.5,11.4,18.7,19.9c4.1,8.5,6.1,18.3,6.1,29.4
		c0,10.6-2.6,20.2-8,28.3s-12.5,14.4-21.3,18.7c1.8,1.5,3.4,3.3,4.6,5.3c1.3,2,2.8,4.9,4.4,8.5l18.3,41.7h-48.3l-16.8-38.2
		c-1.4-3-2.9-5-4.8-6.3c-1.9-1.3-4.5-1.9-8-1.9h-13v46.3H13.5z M59.9,90.8h24.4c6.8,0,12-1.8,15.7-5.3c3.8-3.5,5.5-8.6,5.5-15.2
		c0-14-6.6-20.9-19.8-20.9H59.8v41.3H59.9z"/>
	<path class="st0" d="M151.7,172.7l61-158.9h49.1l60.9,158.9h-48.3l-13.3-33.8h-47.8l-13,33.8H151.7z M219.4,105.6h35.6L237.1,59
		L219.4,105.6z"/>
	<path class="st0" d="M337.6,172.7V13.8h46.3v158.9H337.6z"/>
	<path class="st0" d="M403.7,172.7V13.8H450v123.3h71.5v35.6H403.7z"/>
	<path class="st0" d="M667.1,175.2V50.8h-44.7V16.3h135.7v34.6h-44.7v124.3H667.1z"/>
	<path class="st0" d="M768,175.2V16.3h82.6c13,0,23.7,2.4,31.9,7.1s14.5,11.4,18.7,19.9c4.1,8.5,6.1,18.3,6.1,29.4
		c0,10.6-2.6,20.2-8,28.3c-5.4,8.1-12.5,14.4-21.3,18.7c1.8,1.5,3.4,3.3,4.6,5.3c1.3,2,2.8,4.9,4.4,8.5l18.3,41.7H857L840.2,137
		c-1.4-3-2.9-5-4.8-6.3c-1.9-1.3-4.5-1.9-8-1.9h-13v46.3H768z M814.3,93.3h24.4c6.8,0,12-1.8,15.7-5.3c3.8-3.5,5.5-8.6,5.5-15.2
		c0-14-6.6-20.9-19.8-20.9h-25.9v41.3H814.3z"/>
	<path class="st0" d="M922.3,175.2V16.3h46.3v158.9H922.3z"/>
	<path class="st0" d="M988.4,175.2V16.3h81.9c13,0,23.7,2.6,32.2,7.8c8.5,5.1,14.8,12.3,18.9,21c4.1,8.9,6.1,18.8,6.1,29.6
		c0,11.1-2.4,21.2-7.1,29.8c-4.8,8.8-11.5,15.5-20.3,20.5c-8.8,4.9-19,7.4-30.8,7.4h-34.6v42.8H988.4z M1034.7,97h23.9
		c7.3,0,12.6-2,16.2-6.1s5.3-9.5,5.3-16c0-7-1.6-12.6-4.9-16.8c-3.3-4.1-8.4-6.1-15.3-6.1h-25.2V97z"/>
	<circle class="st0" cx="570.5" cy="95.7" r="29.2"/>
</g>
</svg>
