<?xml version="1.0" encoding="utf-8"?>
<!-- Generator: Adobe Illustrator 25.4.1, SVG Export Plug-In . SVG Version: 6.00 Build 0)  -->
<svg version="1.1" id="Layer_1" xmlns="http://www.w3.org/2000/svg" xmlns:xlink="http://www.w3.org/1999/xlink" x="0px" y="0px"
	 viewBox="0 0 1201 281" style="enable-background:new 0 0 1201 281;" xml:space="preserve">
<style type="text/css">
	.st0{fill:#FFFFFF;}
</style>
<g>
	<g>
		<path class="st0" d="M399.6,141V14.1h66c10.4,0,18.9,1.9,25.5,5.7c6.6,3.8,11.6,9.1,14.9,15.9c3.3,6.8,4.9,14.6,4.9,23.5
			c0,8.5-2.1,16.1-6.4,22.6c-4.3,6.5-10,11.5-17,14.9c1.4,1.2,2.7,2.6,3.7,4.2c1,1.6,2.2,3.9,3.5,6.8l14.6,33.3h-38.6l-13.4-30.5
			c-1.1-2.4-2.3-4-3.8-5c-1.5-1-3.6-1.5-6.4-1.5h-10.4v37H399.6z M436.7,75.6h19.5c5.4,0,9.6-1.4,12.5-4.2c3-2.8,4.4-6.9,4.4-12.1
			c0-11.2-5.3-16.7-15.8-16.7h-20.7V75.6z"/>
		<path class="st0" d="M510,141l48.7-126.9h39.2L646.5,141h-38.6l-10.6-27h-38.2l-10.4,27H510z M564,87.4h28.4l-14.2-37.2L564,87.4z
			"/>
		<path class="st0" d="M658.4,141V14.1h37V141H658.4z"/>
		<path class="st0" d="M711.2,141V14.1h37v98.5h57.1V141H711.2z"/>
		<path class="st0" d="M823.3,141V41.7h-35.7V14.1H896v27.6h-35.7V141H823.3z"/>
		<path class="st0" d="M903.9,141V14.1h66c10.4,0,18.9,1.9,25.5,5.7c6.6,3.8,11.6,9.1,14.9,15.9c3.3,6.8,4.9,14.6,4.9,23.5
			c0,8.5-2.1,16.1-6.4,22.6c-4.3,6.5-10,11.5-17,14.9c1.4,1.2,2.7,2.6,3.7,4.2c1,1.6,2.2,3.9,3.5,6.8l14.6,33.3H975l-13.4-30.5
			c-1.1-2.4-2.3-4-3.8-5c-1.5-1-3.6-1.5-6.4-1.5h-10.4v37H903.9z M940.9,75.6h19.5c5.4,0,9.6-1.4,12.5-4.2c3-2.8,4.4-6.9,4.4-12.1
			c0-11.2-5.3-16.7-15.8-16.7h-20.7V75.6z"/>
		<path class="st0" d="M1027.1,141V14.1h37V141H1027.1z"/>
		<path class="st0" d="M1079.9,141V14.1h65.4c10.4,0,18.9,2.1,25.7,6.2c6.8,4.1,11.8,9.8,15.1,16.8c3.3,7.1,4.9,15,4.9,23.6
			c0,8.9-1.9,16.9-5.7,23.8c-3.8,7-9.2,12.4-16.2,16.4c-7,3.9-15.2,5.9-24.6,5.9h-27.6V141H1079.9z M1116.9,78.6h19.1
			c5.8,0,10.1-1.6,12.9-4.9c2.8-3.3,4.2-7.6,4.2-12.8c0-5.6-1.3-10.1-3.9-13.4c-2.6-3.3-6.7-4.9-12.2-4.9h-20.1V78.6z"/>
	</g>
	<g>
		<path class="st0" d="M400,194.1v-29h19v2.9h-15.3v10.1h13.6v2.9h-13.6v13.1H400z"/>
		<path class="st0" d="M445,194.6c-4.5,0-7.9-1.2-10.1-3.6c-2.2-2.4-3.3-6.2-3.3-11.4c0-5.2,1.1-9,3.3-11.4
			c2.2-2.4,5.6-3.6,10.1-3.6c4.6,0,7.9,1.2,10.1,3.6c2.2,2.4,3.3,6.2,3.3,11.4c0,5.2-1.1,9-3.3,11.4
			C452.9,193.4,449.5,194.6,445,194.6z M445,191.4c2.2,0,4-0.4,5.4-1.1c1.4-0.7,2.5-2,3.2-3.7c0.7-1.7,1.1-4,1.1-7
			c0-2.9-0.4-5.2-1.1-7c-0.7-1.7-1.8-3-3.2-3.7c-1.4-0.7-3.2-1.1-5.4-1.1c-2.2,0-4,0.4-5.4,1.1c-1.4,0.8-2.5,2-3.2,3.7
			c-0.7,1.7-1.1,4-1.1,7c0,2.9,0.4,5.2,1.1,7c0.7,1.7,1.8,3,3.2,3.7C441,191,442.8,191.4,445,191.4z"/>
		<path class="st0" d="M472.8,194.1v-29h12.7c3.1,0,5.4,0.8,6.8,2.4c1.4,1.6,2.1,3.8,2.1,6.6c0,2.1-0.5,3.9-1.6,5.3
			c-1,1.4-2.6,2.4-4.6,2.8c0.6,0.4,1.1,0.8,1.4,1.2c0.3,0.5,0.6,1.1,1,1.9l3.8,8.7h-3.8l-3.7-8.4c-0.4-0.9-0.9-1.5-1.4-1.9
			c-0.6-0.4-1.5-0.6-2.9-0.6h-6.1v10.9H472.8z M476.5,180.3h8c2,0,3.5-0.5,4.6-1.5c1.1-1,1.7-2.5,1.7-4.7c0-4.1-1.9-6.1-5.8-6.1
			h-8.5V180.3z"/>
		<path class="st0" d="M527.3,194.1l11-29h4.3l11,29h-3.8l-3.1-8h-12.6l-3.1,8H527.3z M534.9,183.2h11.3l-5.7-14.9L534.9,183.2z"/>
		<path class="st0" d="M600.5,194.6c-3.1,0-5.7-0.6-7.8-1.8c-2.1-1.2-3.6-2.9-4.6-5c-1-2.1-1.5-4.7-1.5-7.5c0-3.2,0.5-5.9,1.4-8.2
			c1-2.3,2.5-4.1,4.5-5.4c2-1.3,4.7-1.9,7.9-1.9c1.7,0,3.2,0.1,4.6,0.4c1.4,0.2,2.6,0.6,3.8,1v3.2c-1.2-0.5-2.5-0.8-3.8-1.1
			c-1.4-0.3-2.8-0.4-4.3-0.4c-2.6,0-4.7,0.5-6.2,1.5c-1.5,1-2.6,2.4-3.3,4.3c-0.7,1.9-1,4.1-1,6.7c0,3.6,0.8,6.3,2.5,8.3
			c1.7,1.9,4.3,2.9,8,2.9c1.3,0,2.5-0.1,3.7-0.3c1.2-0.2,2.3-0.5,3.2-0.9V181h-7.7v-2.5h10.9v13.8c-0.9,0.6-2.1,1.1-3.8,1.6
			C605.3,194.3,603.2,194.6,600.5,194.6z"/>
		<path class="st0" d="M637.7,194.6c-4.5,0-7.9-1.2-10.1-3.6c-2.2-2.4-3.3-6.2-3.3-11.4c0-5.2,1.1-9,3.3-11.4
			c2.2-2.4,5.6-3.6,10.1-3.6c4.6,0,7.9,1.2,10.1,3.6c2.2,2.4,3.3,6.2,3.3,11.4c0,5.2-1.1,9-3.3,11.4
			C645.6,193.4,642.3,194.6,637.7,194.6z M637.7,191.4c2.2,0,4-0.4,5.4-1.1c1.4-0.7,2.5-2,3.2-3.7c0.7-1.7,1.1-4,1.1-7
			c0-2.9-0.4-5.2-1.1-7c-0.7-1.7-1.8-3-3.2-3.7c-1.4-0.7-3.2-1.1-5.4-1.1c-2.2,0-4,0.4-5.4,1.1c-1.4,0.8-2.5,2-3.2,3.7
			c-0.7,1.7-1.1,4-1.1,7c0,2.9,0.4,5.2,1.1,7c0.7,1.7,1.8,3,3.2,3.7C633.7,191,635.5,191.4,637.7,191.4z"/>
		<path class="st0" d="M678,194.6c-4.5,0-7.9-1.2-10.1-3.6c-2.2-2.4-3.3-6.2-3.3-11.4c0-5.2,1.1-9,3.3-11.4
			c2.2-2.4,5.6-3.6,10.1-3.6c4.6,0,7.9,1.2,10.1,3.6c2.2,2.4,3.3,6.2,3.3,11.4c0,5.2-1.1,9-3.3,11.4
			C685.9,193.4,682.5,194.6,678,194.6z M678,191.4c2.2,0,4-0.4,5.4-1.1c1.4-0.7,2.5-2,3.2-3.7c0.7-1.7,1.1-4,1.1-7
			c0-2.9-0.4-5.2-1.1-7c-0.7-1.7-1.8-3-3.2-3.7c-1.4-0.7-3.2-1.1-5.4-1.1c-2.2,0-4,0.4-5.4,1.1c-1.4,0.8-2.5,2-3.2,3.7
			c-0.7,1.7-1.1,4-1.1,7c0,2.9,0.4,5.2,1.1,7c0.7,1.7,1.8,3,3.2,3.7C674,191,675.8,191.4,678,191.4z"/>
		<path class="st0" d="M705.7,194.1v-29h11.3c4.2,0,7.3,1.1,9.2,3.4c2,2.3,2.9,6,2.9,11.3c0,5-1,8.6-2.9,10.9
			c-1.9,2.3-5,3.4-9.3,3.4H705.7z M709.4,191.2h7c2,0,3.7-0.3,5.1-0.9c1.4-0.6,2.4-1.7,3-3.4c0.7-1.7,1-4,1-7.1
			c0-3.1-0.3-5.4-0.9-7.2c-0.6-1.7-1.6-2.9-2.9-3.6c-1.3-0.7-3.1-1-5.3-1h-7V191.2z"/>
		<path class="st0" d="M763,194.1v-29h3.7v26.1h15.4v2.9H763z"/>
		<path class="st0" d="M795.7,194.1v-29h3.7v29H795.7z"/>
		<path class="st0" d="M814.7,194.1v-29h19v2.9h-15.3v10.1H832v2.9h-13.6v13.1H814.7z"/>
		<path class="st0" d="M847.2,194.1v-29h19.6v2.9h-15.9v10.1h14.3v2.9h-14.3v10.2h15.9v2.9H847.2z"/>
		<path class="st0" d="M908.4,194.1V168h-9.6v-2.9h23v2.9h-9.6v26.1H908.4z"/>
		<path class="st0" d="M935.2,194.1v-29h12.7c3.1,0,5.4,0.8,6.8,2.4c1.4,1.6,2.1,3.8,2.1,6.6c0,2.1-0.5,3.9-1.6,5.3
			c-1,1.4-2.6,2.4-4.6,2.8c0.6,0.4,1.1,0.8,1.4,1.2c0.3,0.5,0.6,1.1,1,1.9l3.8,8.7h-3.8l-3.7-8.4c-0.4-0.9-0.9-1.5-1.4-1.9
			c-0.6-0.4-1.5-0.6-2.9-0.6h-6.1v10.9H935.2z M938.9,180.3h8c2,0,3.5-0.5,4.6-1.5c1.1-1,1.7-2.5,1.7-4.7c0-4.1-1.9-6.1-5.8-6.1
			h-8.5V180.3z"/>
		<path class="st0" d="M968.4,194.1l11-29h4.3l11,29h-3.8l-3.1-8h-12.6l-3.1,8H968.4z M975.9,183.2h11.3l-5.7-14.9L975.9,183.2z"/>
		<path class="st0" d="M1014.1,194.1l-11-29h3.8l9.3,25.3l9.4-25.3h3.8l-11,29H1014.1z"/>
		<path class="st0" d="M1043.1,194.1v-29h19.6v2.9h-15.9v10.1h14.3v2.9h-14.3v10.2h15.9v2.9H1043.1z"/>
		<path class="st0" d="M1077.1,194.1v-29h3.7v26.1h15.4v2.9H1077.1z"/>
		<path class="st0" d="M1109.8,194.1v-29h3.7v29H1109.8z"/>
		<path class="st0" d="M1128.8,194.1v-29h3.3l16.5,23.3v-23.3h3.7v29h-3.4l-16.5-23.3v23.3H1128.8z"/>
		<path class="st0" d="M1180.6,194.6c-3.1,0-5.7-0.6-7.8-1.8c-2.1-1.2-3.6-2.9-4.6-5c-1-2.1-1.5-4.7-1.5-7.5c0-3.2,0.5-5.9,1.4-8.2
			c1-2.3,2.5-4.1,4.5-5.4c2-1.3,4.7-1.9,7.9-1.9c1.7,0,3.2,0.1,4.6,0.4c1.4,0.2,2.6,0.6,3.9,1v3.2c-1.2-0.5-2.5-0.8-3.8-1.1
			c-1.4-0.3-2.8-0.4-4.3-0.4c-2.6,0-4.7,0.5-6.2,1.5c-1.5,1-2.6,2.4-3.3,4.3c-0.7,1.9-1,4.1-1,6.7c0,3.6,0.8,6.3,2.5,8.3
			c1.7,1.9,4.3,2.9,8,2.9c1.3,0,2.5-0.1,3.7-0.3c1.2-0.2,2.3-0.5,3.2-0.9V181h-7.7v-2.5h10.9v13.8c-0.9,0.6-2.1,1.1-3.8,1.6
			C1185.5,194.3,1183.3,194.6,1180.6,194.6z"/>
	</g>
	<path class="st0" d="M1191,212H374.9c0-3.7,0-7.4,0-11c0-18.1-0.1-36.2,0.1-54.2c0-2.6-0.6-3.4-3.3-3.3c-8.1,0.2-16.2,0-24.3,0.2
		c-2.5,0.1-2.9-0.8-2.9-3c0.1-13.2,0.1-26.5,0-39.7c0-2.2,0.5-2.9,2.8-2.9c8.3,0.1,16.6-0.1,24.9,0c2.2,0,2.8-0.7,2.8-2.8
		c-0.1-26,0-52,0-78c0-1.5,0.2-2.8-2.2-2.8c-25.3-0.1-50.6,0.5-75.7,3.9c-34.1,4.7-66.9,13.9-98.4,28
		c-38.8,17.4-76.3,37.2-111.6,60.9c-20.8,14-41,28.9-59.1,46.3c-7.3,7-13.3,15-15.9,24.9c-4.2,16.2,1.6,29,16.8,37.4
		c10.1,5.6,21.1,8.3,32.4,9.7c4.6,0.6,9.2,1.1,14.4,1.7c-5.6,5.6-10.8,10.7-16,15.8c-1.4,1.4-2.8,2.8-3.3,4.8c-1.1,4.7,2,9,6.8,9.5
		c1,0.1,2,0.1,3,0.1c33.8,0,67.6,0,101.4,0.1c4.1,0,7.1-1.3,9.7-4.5c5-6,10.9-11.1,17.3-15.6c1.6-1.1,2.3-1,3.3,0.7
		c8.2,13.6,20.3,20.4,36.1,19.1c16.4-1.4,28.8-12.2,33.2-27.9c0.5-1.9,1.3-2.3,3-2.3c3.9,0.1,7.9,0.2,11.8,0c2-0.1,2.7,0.6,3.2,2.4
		c4.1,13.6,13,22.6,26.6,26.5c19.6,5.6,40.6-6.2,46.1-25.8c0.7-2.3,1.6-3.3,3.9-3.1v0.1h1.9c1.7,0,3.4,0,5.1,0h1.2c0.7,0,1.4,0,2,0
		c0.4,0,0.7,0,1,0H1191V212z M162.4,220.2c-0.4,4.1-3.9,6.8-8.6,6.8c-25.2,0-50.3,0-75.5,0h-1.4c-0.2-0.3-0.4-0.5-0.5-0.8
		c4.1-4.1,8.3-8.1,12.4-12.2c1.6-1.6,3.2-2.3,5.4-2.3c17.4,0.1,34.7,0.1,52.1,0.1c2.9,0,5.7-0.1,8.6,0.1
		C159.6,212.1,162.9,215.8,162.4,220.2z M202.9,153.6c-13.2,1.5-26.4,3.2-39.6,5c-2.2,0.3-3.9-0.2-5.2-1.9
		c-3.2-3.8-6.3-7.6-9.5-11.3c-0.7-0.9-1.2-1.8-1.3-2.7c0-2.8,1.9-3.7,3.9-4.5c15.3-6.2,30.9-11.3,46.6-16.2c2.6-0.8,3.4-0.2,3.8,2.4
		c1.3,8.5,2.7,17,4.3,25.4C206.3,152.6,205.6,153.3,202.9,153.6z M250.7,230.1c-8.3,15.2-29.4,16.1-39,1.7c-1.3-2-1.3-2.8,1.3-3.5
		c7.2-1.9,14.5-1,20.8-1.3c5.7,0,10.4,0,15.2,0C252.4,227,252.4,227.1,250.7,230.1z M261,127.3c0,6.1,0,12.2,0,18.3
		c0,1.4-0.3,2-1.9,2.2c-11.8,1.1-23.6,2.2-35.3,3.4c-1.9,0.2-2.6-0.4-2.9-2.2c-1.6-9.7-3.3-19.4-5-29.1c-0.4-2.1,0.2-2.9,2.3-3.5
		c13.5-3.5,27-6.5,40.6-9.3c1.7-0.3,2.3,0,2.2,1.8C261,115,261,121.2,261,127.3z M253.7,62.5c-12.8,11-27.9,17.4-43.7,22.3
		c-28.3,8.9-57.4,14.3-87,18.3c0.8-1.3,2-1.8,3-2.4c19.1-11.4,38.7-21.7,58.7-31.3c26.5-12.8,53.7-24,82.6-30.3
		c2.9-0.6,5.7-1.5,9.1-1.6C269.3,46.6,262.2,55.2,253.7,62.5z M279,146.3c-1.4,0.1-2.7,0.4-2.7-1.9c0.1-12.8,0-25.7,0-38.5
		c0-1.3,0.5-1.8,1.8-2.1c16.2-2.5,32.5-4.1,48.8-5.2c2.1-0.1,2.4,0.7,2.4,2.5c-0.1,6.7,0,13.4,0,20.1c0,6.7-0.1,13.4,0,20.1
		c0,1.9-0.5,2.6-2.5,2.6c-3.3-0.1-6.5,0-9.8,0.2C304.4,144.9,291.7,145.6,279,146.3z M342.3,229.1c-4.3,8.2-10.9,12.9-20.3,12.9
		c-9.5,0.1-16.3-4.4-20.7-12.8c-1-2-0.3-2.3,1.6-2.3c6.3,0.1,12.6,0,18.9,0c6.3,0,12.6,0,18.9,0C342.4,227,343.3,227.2,342.3,229.1z
		"/>
</g>
</svg>
